<?xml version="1.0" standalone="no"?>
<!DOCTYPE svg PUBLIC "-//W3C//DTD SVG 20010904//EN"
 "http://www.w3.org/TR/2001/REC-SVG-20010904/DTD/svg10.dtd">
<svg version="1.0" xmlns="http://www.w3.org/2000/svg"
 width="512.000000pt" height="512.000000pt" viewBox="0 0 512.000000 512.000000"
 preserveAspectRatio="xMidYMid meet">
<metadata>
Created by potrace 1.11, written by Peter Selinger 2001-2013
</metadata>
<g transform="translate(0.000000,512.000000) scale(0.100000,-0.100000)"
fill="#000000" stroke="none">
<path d="M2385 4904 c-328 -33 -591 -107 -860 -240 -238 -119 -435 -264 -627
-462 -340 -350 -543 -757 -630 -1262 -30 -171 -33 -587 -5 -755 85 -514 299
-937 657 -1295 446 -448 1008 -681 1640 -681 349 0 648 64 957 203 258 117
474 268 683 478 358 358 573 782 657 1295 28 169 25 585 -4 755 -89 506 -291
912 -631 1262 -192 198 -389 343 -627 462 -224 111 -453 183 -700 221 -104 16
-424 28 -510 19z m228 -1128 c18 -8 309 -292 689 -672 709 -712 678 -676 663
-772 -6 -39 -17 -56 -78 -119 -49 -51 -82 -76 -107 -83 -83 -22 -62 -40 -662
559 l-558 556 -557 -556 c-601 -599 -580 -581 -663 -559 -25 7 -58 32 -107 83
-61 63 -72 80 -78 119 -15 96 -46 60 663 772 362 362 671 664 687 672 39 17
68 17 108 0z"/>
</g>
</svg>
